HIERARCHY
ROOT Hips
{
  OFFSET 365.14 88.1684 197.519
  CHANNELS 6 Xposition Yposition Zposition Zrotation Xrotation Yrotation
  JOINT RightUpLeg
  {
    OFFSET -9.25134 -1.53971 -0.0324706
    CHANNELS 6 Xposition Yposition Zposition Zrotation Xrotation Yrotation
    JOINT RightLeg
    {
      OFFSET 0.00425615 -41.8809 0.0674633
      CHANNELS 6 Xposition Yposition Zposition Zrotation Xrotation Yrotation
      JOINT RightFoot
      {
        OFFSET 0.58129 -42.7595 -0.0996806
        CHANNELS 6 Xposition Yposition Zposition Zrotation Xrotation Yrotation
        End Site
        {
          OFFSET 0 -7.69 17.5
        }
      }
    }
  }
  JOINT LeftUpLeg
  {
    OFFSET 9.27841 -1.63567 0.0208533
    CHANNELS 6 Xposition Yposition Zposition Zrotation Xrotation Yrotation
    JOINT LeftLeg
    {
      OFFSET 0.0368418 -41.8969 -0.0246917
      CHANNELS 6 Xposition Yposition Zposition Zrotation Xrotation Yrotation
      JOINT LeftFoot
      {
        OFFSET -0.005132 -40.7663 0.276477
        CHANNELS 6 Xposition Yposition Zposition Zrotation Xrotation Yrotation
        End Site
        {
          OFFSET 0 -7.69 17.5
        }
      }
    }
  }
  JOINT Spine
  {
    OFFSET 0.0273715 14.2973 0.0132618
    CHANNELS 6 Xposition Yposition Zposition Zrotation Xrotation Yrotation
    JOINT Spine1
    {
      OFFSET 0.0356242 9.71856 0.0117599
      CHANNELS 6 Xposition Yposition Zposition Zrotation Xrotation Yrotation
      JOINT Spine2
      {
        OFFSET 0.0265435 10.1205 -0.00131286
        CHANNELS 6 Xposition Yposition Zposition Zrotation Xrotation Yrotation
        JOINT Spine3
        {
          OFFSET 0.0373809 9.71499 0.00890364
          CHANNELS 6 Xposition Yposition Zposition Zrotation Xrotation Yrotation
          JOINT Neck
          {
            OFFSET 0.0718734 10.3849 0.103433
            CHANNELS 6 Xposition Yposition Zposition Zrotation Xrotation Yrotation
            JOINT Head
            {
              OFFSET 0.0694951 9.46555 0.0801324
              CHANNELS 6 Xposition Yposition Zposition Zrotation Xrotation Yrotation
              End Site
              {
                OFFSET 0 15.95 0
              }
            }
          }
          JOINT RightShoulder
          {
            OFFSET -3.17077 6.92615 0.0206421
            CHANNELS 6 Xposition Yposition Zposition Zrotation Xrotation Yrotation
            JOINT RightArm
            {
              OFFSET -12.8009 0.045143 0.0503553
              CHANNELS 6 Xposition Yposition Zposition Zrotation Xrotation Yrotation
              JOINT RightForeArm
              {
                OFFSET -26.5131 -0.00460937 0.0547871
                CHANNELS 6 Xposition Yposition Zposition Zrotation Xrotation Yrotation
                JOINT RightHand
                {
                  OFFSET -26.0399 0.339815 -0.212656
                  CHANNELS 6 Xposition Yposition Zposition Zrotation Xrotation Yrotation
                  JOINT RightHandThumb1
                  {
                    OFFSET -2.48905 0.190105 3.12053
                    CHANNELS 6 Xposition Yposition Zposition Zrotation Xrotation Yrotation
                    JOINT RightHandThumb2
                    {
                      OFFSET -3.68274 0 0
                      CHANNELS 6 Xposition Yposition Zposition Zrotation Xrotation Yrotation
                      JOINT RightHandThumb3
                      {
                        OFFSET -2.55832 0 0
                        CHANNELS 6 Xposition Yposition Zposition Zrotation Xrotation Yrotation
                        End Site
                        {
                          OFFSET -2.194 0 0
                        }
                      }
                    }
                  }
                  JOINT RightInHandIndex
                  {
                    OFFSET -3.22368 0.508421 1.97842
                    CHANNELS 6 Xposition Yposition Zposition Zrotation Xrotation Yrotation
                    JOINT RightHandIndex1
                    {
                      OFFSET -5.21684 -0.091368 0.999158
                      CHANNELS 6 Xposition Yposition Zposition Zrotation Xrotation Yrotation
                      JOINT RightHandIndex2
                      {
                        OFFSET -3.61937 0 0
                        CHANNELS 6 Xposition Yposition Zposition Zrotation Xrotation Yrotation
                        JOINT RightHandIndex3
                        {
                          OFFSET -2.0521 0 0
                          CHANNELS 6 Xposition Yposition Zposition Zrotation Xrotation Yrotation
                          End Site
                          {
                            OFFSET -1.805 0 0
                          }
                        }
                      }
                    }
                  }
                  JOINT RightInHandMiddle
                  {
                    OFFSET -3.38211 0.517263 0.756737
                    CHANNELS 6 Xposition Yposition Zposition Zrotation Xrotation Yrotation
                    JOINT RightHandMiddle1
                    {
                      OFFSET -5.17411 -0.084 0.313895
                      CHANNELS 6 Xposition Yposition Zposition Zrotation Xrotation Yrotation
                      JOINT RightHandMiddle2
                      {
                        OFFSET -3.94947 0 0
                        CHANNELS 6 Xposition Yposition Zposition Zrotation Xrotation Yrotation
                        JOINT RightHandMiddle3
                        {
                          OFFSET -2.47579 0 0
                          CHANNELS 6 Xposition Yposition Zposition Zrotation Xrotation Yrotation
                          End Site
                          {
                            OFFSET -1.975 0 0
                          }
                        }
                      }
                    }
                  }
                  JOINT RightInHandRing
                  {
                    OFFSET -3.36516 0.537895 -0.128947
                    CHANNELS 6 Xposition Yposition Zposition Zrotation Xrotation Yrotation
                    JOINT RightHandRing1
                    {
                      OFFSET -4.63474 -0.022105 -0.478947
                      CHANNELS 6 Xposition Yposition Zposition Zrotation Xrotation Yrotation
                      JOINT RightHandRing2
                      {
                        OFFSET -3.44238 0 0
                        CHANNELS 6 Xposition Yposition Zposition Zrotation Xrotation Yrotation
                        JOINT RightHandRing3
                        {
                          OFFSET -2.3881 0 0
                          CHANNELS 6 Xposition Yposition Zposition Zrotation Xrotation Yrotation
                          End Site
                          {
                            OFFSET -1.857 0 0
                          }
                        }
                      }
                    }
                  }
                  JOINT RightInHandPinky
                  {
                    OFFSET -3.16105 0.469368 -1.20179
                    CHANNELS 6 Xposition Yposition Zposition Zrotation Xrotation Yrotation
                    JOINT RightHandPinky1
                    {
                      OFFSET -4.14105 -0.022105 -1.09053
                      CHANNELS 6 Xposition Yposition Zposition Zrotation Xrotation Yrotation
                      JOINT RightHandPinky2
                      {
                        OFFSET -2.75653 0 0
                        CHANNELS 6 Xposition Yposition Zposition Zrotation Xrotation Yrotation
                        JOINT RightHandPinky3
                        {
                          OFFSET -1.74189 0 0
                          CHANNELS 6 Xposition Yposition Zposition Zrotation Xrotation Yrotation
                          End Site
                          {
                            OFFSET -1.645 0 0
                          }
                        }
                      }
                    }
                  }
                }
              }
            }
          }
          JOINT LeftShoulder
          {
            OFFSET 3.24206 6.90465 -0.0188506
            CHANNELS 6 Xposition Yposition Zposition Zrotation Xrotation Yrotation
            JOINT LeftArm
            {
              OFFSET 12.8376 -0.0128309 -0.0438741
              CHANNELS 6 Xposition Yposition Zposition Zrotation Xrotation Yrotation
              JOINT LeftForeArm
              {
                OFFSET 26.5076 -0.0124854 -0.0131797
                CHANNELS 6 Xposition Yposition Zposition Zrotation Xrotation Yrotation
                JOINT LeftHand
                {
                  OFFSET 25.9948 -0.0840125 0.0167125
                  CHANNELS 6 Xposition Yposition Zposition Zrotation Xrotation Yrotation
                  JOINT LeftHandThumb1
                  {
                    OFFSET 2.48905 0.190105 3.12053
                    CHANNELS 6 Xposition Yposition Zposition Zrotation Xrotation Yrotation
                    JOINT LeftHandThumb2
                    {
                      OFFSET 3.68274 0 0
                      CHANNELS 6 Xposition Yposition Zposition Zrotation Xrotation Yrotation
                      JOINT LeftHandThumb3
                      {
                        OFFSET 2.55832 0 0
                        CHANNELS 6 Xposition Yposition Zposition Zrotation Xrotation Yrotation
                        End Site
                        {
                          OFFSET 2.194 0 0
                        }
                      }
                    }
                  }
                  JOINT LeftInHandIndex
                  {
                    OFFSET 3.22368 0.508421 1.97842
                    CHANNELS 6 Xposition Yposition Zposition Zrotation Xrotation Yrotation
                    JOINT LeftHandIndex1
                    {
                      OFFSET 5.21684 -0.091368 0.999158
                      CHANNELS 6 Xposition Yposition Zposition Zrotation Xrotation Yrotation
                      JOINT LeftHandIndex2
                      {
                        OFFSET 3.61937 0 0
                        CHANNELS 6 Xposition Yposition Zposition Zrotation Xrotation Yrotation
                        JOINT LeftHandIndex3
                        {
                          OFFSET 2.0521 0 0
                          CHANNELS 6 Xposition Yposition Zposition Zrotation Xrotation Yrotation
                          End Site
                          {
                            OFFSET 1.805 0 0
                          }
                        }
                      }
                    }
                  }
                  JOINT LeftInHandMiddle
                  {
                    OFFSET 3.38211 0.517263 0.756737
                    CHANNELS 6 Xposition Yposition Zposition Zrotation Xrotation Yrotation
                    JOINT LeftHandMiddle1
                    {
                      OFFSET 5.17411 -0.084 0.313895
                      CHANNELS 6 Xposition Yposition Zposition Zrotation Xrotation Yrotation
                      JOINT LeftHandMiddle2
                      {
                        OFFSET 3.94947 0 0
                        CHANNELS 6 Xposition Yposition Zposition Zrotation Xrotation Yrotation
                        JOINT LeftHandMiddle3
                        {
                          OFFSET 2.47579 0 0
                          CHANNELS 6 Xposition Yposition Zposition Zrotation Xrotation Yrotation
                          End Site
                          {
                            OFFSET 1.975 0 0
                          }
                        }
                      }
                    }
                  }
                  JOINT LeftInHandRing
                  {
                    OFFSET 3.36516 0.537895 -0.128947
                    CHANNELS 6 Xposition Yposition Zposition Zrotation Xrotation Yrotation
                    JOINT LeftHandRing1
                    {
                      OFFSET 4.63474 -0.022105 -0.478947
                      CHANNELS 6 Xposition Yposition Zposition Zrotation Xrotation Yrotation
                      JOINT LeftHandRing2
                      {
                        OFFSET 3.44238 0 0
                        CHANNELS 6 Xposition Yposition Zposition Zrotation Xrotation Yrotation
                        JOINT LeftHandRing3
                        {
                          OFFSET 2.3881 0 0
                          CHANNELS 6 Xposition Yposition Zposition Zrotation Xrotation Yrotation
                          End Site
                          {
                            OFFSET 1.857 0 0
                          }
                        }
                      }
                    }
                  }
                  JOINT LeftInHandPinky
                  {
                    OFFSET 3.16105 0.469368 -1.20179
                    CHANNELS 6 Xposition Yposition Zposition Zrotation Xrotation Yrotation
                    JOINT LeftHandPinky1
                    {
                      OFFSET 4.14105 -0.022105 -1.09053
                      CHANNELS 6 Xposition Yposition Zposition Zrotation Xrotation Yrotation
                      JOINT LeftHandPinky2
                      {
                        OFFSET 2.75653 0 0
                        CHANNELS 6 Xposition Yposition Zposition Zrotation Xrotation Yrotation
                        JOINT LeftHandPinky3
                        {
                          OFFSET 1.74189 0 0
                          CHANNELS 6 Xposition Yposition Zposition Zrotation Xrotation Yrotation
                          End Site
                          {
                            OFFSET 1.645 0 0
                          }
                        }
                      }
                    }
                  }
                }
              }
            }
          }
        }
      }
    }
  }
}
MOTION
Frames:	3
Frame Time:	0.00416667
365.14 88.1684 197.519 24.7979 12.3535 -67.8616 -9.25134 -1.53971 -0.0324706 -13.2386 -57.0599 -10.9358 0.00425615 -41.8809 0.0674633 -3.23929 23.1903 -14.7554 0.58129 -42.7595 -0.0996806 9.06939 8.40911 24.9757 9.27841 -1.63567 0.0208533 14.4873 -48.2893 0.233384 0.0368418 -41.8969 -0.0246917 5.0684 30.9987 -0.296752 -0.005132 -40.7663 0.276477 -15.278 -10.5555 -15.8906 0.0273715 14.2973 0.0132618 -5.13031 14.5157 14.9384 0.0356242 9.71856 0.0117599 -0.934913 3.60687 3.67933 0.0265435 10.1205 -0.00131286 -1.58954 5.71454 6.06193 0.0373809 9.71499 0.00890364 -0.315223 -0.456063 -0.552811 0.0718734 10.3849 0.103433 -0.315567 -0.461267 -0.55052 0.0694951 9.46555 0.0801324 -6.45512 -8.65181 -9.67521 -3.17077 6.92615 0.0206421 0.355771 -13.9221 21.5771 -12.8009 0.045143 0.0503553 77.0207 0.0647294 53.3476 -26.5131 -0.00460937 0.0547871 26.1603 -61.3117 16.3809 -26.0399 0.339815 -0.212656 18.6294 -24.5535 -25.4548 -2.48905 0.190105 3.12053 28.184 10.7294 19.1592 -3.68274 0 -5.68434e-14 1.60001e-14 3.73964e-15 -10 -2.55832 -1.42109e-14 0 -1.52518e-14 -4.07509e-15 -10 -3.22368 0.508421 1.97842 3.18055e-15 -1.59028e-15 1.59028e-15 -5.21684 -0.091368 0.999158 19.9818 0.871897 2.3964 -3.61937 -2.84217e-14 5.68434e-14 24 6.36111e-15 -4.77083e-15 -2.0521 0 5.68434e-14 20 -6.36111e-15 -1.90833e-14 -3.38211 0.517263 0.756737 3.18055e-15 -1.59028e-15 1.59028e-15 -5.17411 -0.084 0.313895 20 3.97569e-15 9.54166e-15 -3.94947 0 2.84217e-14 24 3.57812e-15 -6.36111e-15 -2.47579 0 2.84217e-14 20 3.18055e-15 -1.43125e-14 -3.36516 0.537895 -0.128947 3.18055e-15 -1.59028e-15 1.59028e-15 -4.63474 -0.022105 -0.478947 19.9748 -1.02565 -2.81938 -3.44238 -2.84217e-14 0 24 -7.95139e-16 -9.54166e-15 -2.3881 -2.84217e-14 -2.84217e-14 20 -1.59028e-15 -2.22639e-14 -3.16105 0.469368 -1.20179 3.18055e-15 -1.59028e-15 1.59028e-15 -4.14105 -0.022105 -1.09053 19.7815 -3.00948 -8.30515 -2.75653 -2.84217e-14 0 24 7.95139e-15 -0 -1.74189 0 2.84217e-14 20 -3.18055e-15 -0 3.24206 6.90465 -0.0188506 13.4536 -14.3313 -33.5182 12.8376 -0.0128309 -0.0438741 -20.4073 34.1399 -77.8631 26.5076 -0.0124854 -0.0131797 27.935 -59.5843 32.4908 25.9948 -0.0840125 0.0167125 -17.6683 -26.011 11.5127 2.48905 0.190105 3.12053 -28.184 10.7294 -19.1592 3.68274 0 -2.84217e-14 6.45924e-15 0 10 2.55832 2.84217e-14 -2.84217e-14 -1.29185e-14 0 10 3.22368 0.508421 1.97842 8.82781e-32 -3.18055e-15 1.59028e-15 5.21684 -0.091368 0.999158 -19.9818 0.871897 -2.3964 3.61937 5.68434e-14 -2.84217e-14 -24 6.36111e-15 3.18055e-15 2.0521 2.84217e-14 -5.68434e-14 -20 4.77083e-15 -0 3.38211 0.517263 0.756737 8.82781e-32 -3.18055e-15 1.59028e-15 5.17411 -0.084 0.313895 -20 3.18055e-15 -1.59028e-15 3.94947 0 -2.84217e-14 -24 -7.95139e-15 -0 2.47579 0 -5.68434e-14 -20 0 1.27222e-14 3.36516 0.537895 -0.128947 8.82781e-32 -3.18055e-15 1.59028e-15 4.63474 -0.022105 -0.478947 -19.9748 -1.02565 2.81938 3.44238 -5.68434e-14 5.68434e-14 -24 0 -9.54166e-15 2.3881 -2.84217e-14 0 -20 3.97569e-15 -0 3.16105 0.469368 -1.20179 8.82781e-32 -3.18055e-15 1.59028e-15 4.14105 -0.022105 -1.09053 -19.7815 -3.00948 8.30515 2.75653 0 0 -24 -1.59028e-15 -3.18055e-15 1.74189 0 0 -20 5.1684e-15 -6.36111e-15 
365.156 88.1688 197.556 24.7192 12.1962 -68.0203 -9.25128 -1.52225 -0.0141475 -13.0806 -56.9447 -10.6658 0.00388479 -41.8809 0.0708877 -3.26511 23.1392 -14.6795 0.576017 -42.7626 -0.0960566 9.0815 8.43677 24.9788 9.27534 -1.64988 -7.42115e-05 14.4949 -48.1272 0.379235 0.0380064 -41.8968 -0.0242584 5.0244 31.0449 -0.22992 -0.00624355 -40.762 0.282098 -15.2598 -10.591 -15.8972 0.0555337 14.2972 0.0406406 -5.16814 14.5639 15.0185 0.0428766 9.71807 0.0178671 -0.94132 3.61867 3.69777 0.0264031 10.1205 -0.000676627 -1.59983 5.73106 6.09031 0.037302 9.71499 0.00832378 -0.313993 -0.452966 -0.560871 0.0731744 10.3848 0.104606 -0.314341 -0.458224 -0.558633 0.0806877 9.46557 0.0814192 -6.44087 -8.60079 -9.82072 -3.17053 6.92666 0.0202447 0.394279 -13.8205 21.5296 -12.8007 0.0456759 0.0507632 77.2499 -0.00731379 53.1975 -26.5127 -0.00513092 0.0616692 26.8431 -61.2133 17.2601 -26.0357 0.330009 -0.20277 18.6032 -24.5212 -25.4449 -2.48905 0.190105 3.12053 28.184 10.7294 19.1592 -3.68274 -1.42109e-14 5.68434e-14 3.07504e-15 3.70236e-15 -10 -2.55832 0 -1.13687e-13 -1.37422e-14 -4.67144e-15 -10 -3.22368 0.508421 1.97842 8.82781e-32 -1.59028e-15 3.18055e-15 -5.21684 -0.091368 0.999158 19.9818 0.871897 2.3964 -3.61937 0 -2.84217e-14 24 -1.19271e-15 -4.77083e-15 -2.0521 0 2.84217e-14 20 3.18055e-15 -0 -3.38211 0.517263 0.756737 8.82781e-32 -1.59028e-15 3.18055e-15 -5.17411 -0.084 0.313895 20 1.59028e-15 6.36111e-15 -3.94947 0 0 24 7.55382e-15 -1.59028e-14 -2.47579 0 0 20 9.54166e-15 1.43125e-14 -3.36516 0.537895 -0.128947 8.82781e-32 -1.59028e-15 3.18055e-15 -4.63474 -0.022105 -0.478947 19.9748 -1.02565 -2.81938 -3.44238 1.42109e-14 0 24 -1.59028e-15 -1.27222e-14 -2.3881 2.84217e-14 0 20 -7.95139e-15 -2.22639e-14 -3.16105 0.469368 -1.20179 8.82781e-32 -1.59028e-15 3.18055e-15 -4.14105 -0.022105 -1.09053 19.7815 -3.00948 -8.30515 -2.75653 -1.42109e-14 -2.84217e-14 24 1.59028e-15 -1.27222e-14 -1.74189 0 2.84217e-14 20 4.77083e-15 -6.36111e-15 3.24218 6.9046 -0.0194121 13.408 -14.2886 -33.5401 12.8274 -0.0131238 -0.0440843 -20.3704 34.1582 -77.8199 26.5075 -0.0127469 -0.00609661 27.5836 -59.2376 32.1401 25.9947 -0.0817929 0.0166351 -17.6128 -26.0087 11.5324 2.48905 0.190105 3.12053 -28.184 10.7294 -19.1592 3.68274 2.84217e-14 2.84217e-14 1.29185e-14 0 10 2.55832 0 -5.68434e-14 -1.72697e-14 6.36111e-15 10 3.22368 0.508421 1.97842 -1.59028e-15 3.18055e-15 3.18055e-15 5.21684 -0.091368 0.999158 -19.9818 0.871897 -2.3964 3.61937 0 0 -24 -1.59028e-15 -3.18055e-15 2.0521 2.84217e-14 -2.84217e-14 -20 5.56597e-15 3.18055e-15 3.38211 0.517263 0.756737 -1.59028e-15 3.18055e-15 3.18055e-15 5.17411 -0.084 0.313895 -20 3.18055e-15 1.59028e-15 3.94947 -5.68434e-14 0 -24 -3.18055e-15 -0 2.47579 0 5.68434e-14 -20 8.74653e-15 -6.36111e-15 3.36516 0.537895 -0.128947 -1.59028e-15 3.18055e-15 3.18055e-15 4.63474 -0.022105 -0.478947 -19.9748 -1.02565 2.81938 3.44238 5.68434e-14 -5.68434e-14 -24 4.77083e-15 -3.18055e-15 2.3881 0 0 -20 3.18055e-15 -3.18055e-15 3.16105 0.469368 -1.20179 -1.59028e-15 3.18055e-15 3.18055e-15 4.14105 -0.022105 -1.09053 -19.7815 -3.00948 8.30515 2.75653 0 0 -24 3.18055e-15 3.18055e-15 1.74189 -2.84217e-14 2.84217e-14 -20 3.18055e-15 -0 
365.17 88.1693 197.592 24.6802 12.1286 -68.0914 -9.25125 -1.51541 -0.00871884 -13.0313 -56.8753 -10.6027 0.0067279 -41.881 0.0743683 -3.29033 23.0868 -14.6072 0.570898 -42.7665 -0.0960209 9.09514 8.46782 24.9841 9.27183 -1.65398 -0.00433825 14.4916 -48.0565 0.420476 0.0391984 -41.8968 -0.023607 4.97525 31.0876 -0.17024 -0.00461342 -40.7578 0.287394 -15.2397 -10.6246 -15.9014 0.0635972 14.297 0.0471382 -5.14893 14.5713 15.0342 0.0449173 9.71727 0.0190453 -0.936043 3.61851 3.70286 0.0264588 10.1205 0.000182226 -1.59115 5.72955 6.09867 0.0373592 9.71499 0.00772392 -0.315552 -0.449695 -0.564194 0.0745234 10.3847 0.105741 -0.315906 -0.454973 -0.561994 0.0844584 9.46559 0.0826913 -6.46068 -8.54307 -9.88101 -3.17021 6.92717 0.0198273 0.43819 -13.7204 21.4715 -12.8006 0.0462327 0.0511868 77.4308 -0.0459512 53.063 -26.5123 -0.00546782 0.0618117 27.5563 -61.1819 18.167 -26.0316 0.318032 -0.192015 18.583 -24.4814 -25.4325 -2.48905 0.190105 3.12053 28.184 10.7294 19.1592 -3.68274 0 0 5.83415e-14 -7.97623e-15 -10 -2.55832 1.42109e-14 0 4.40731e-14 2.68359e-15 -10 -3.22368 0.508421 1.97842 6.36111e-15 0 -9.54166e-15 -5.21684 -0.091368 0.999158 19.9818 0.871897 2.3964 -3.61937 0 -2.84217e-14 24 8.74653e-15 4.45278e-14 -2.0521 -2.84217e-14 8.52651e-14 20 3.18055e-15 3.18055e-15 -3.38211 0.517263 0.756737 6.36111e-15 0 -9.54166e-15 -5.17411 -0.084 0.313895 20 -5.56597e-15 1.90833e-14 -3.94947 -1.42109e-14 0 24 1.70955e-14 4.13472e-14 -2.47579 -2.84217e-14 0 20 1.59028e-15 7.95139e-15 -3.36516 0.537895 -0.128947 6.36111e-15 0 -9.54166e-15 -4.63474 -0.022105 -0.478947 19.9748 -1.02565 -2.81938 -3.44238 0 -2.84217e-14 24 1.35174e-14 3.49861e-14 -2.3881 2.84217e-14 0 20 6.36111e-15 2.22639e-14 -3.16105 0.469368 -1.20179 6.36111e-15 0 -9.54166e-15 -4.14105 -0.022105 -1.09053 19.7815 -3.00948 -8.30515 -2.75653 1.42109e-14 -2.84217e-14 24 1.07344e-14 2.54444e-14 -1.74189 -2.84217e-14 0 20 6.36111e-15 1.59028e-14 3.24247 6.90454 -0.020053 13.3716 -14.2453 -33.5617 12.8327 -0.0134274 -0.0443021 -20.2542 34.2183 -77.8902 26.5075 -0.0132829 -0.0128429 27.4204 -58.9188 31.9714 25.9946 -0.0802617 0.0161714 -17.5592 -25.9984 11.5547 2.48905 0.190105 3.12053 -28.184 10.7294 -19.1592 3.68274 -2.84217e-14 5.68434e-14 4.35126e-15 -6.36111e-15 10 2.55832 2.84217e-14 0 5.60818e-16 -3.18055e-15 10 3.22368 0.508421 1.97842 -3.18055e-15 0 -7.95139e-16 5.21684 -0.091368 0.999158 -19.9818 0.871897 -2.3964 3.61937 0 0 -24 0 9.54166e-15 2.0521 0 0 -20 -4.77083e-15 -6.36111e-15 3.38211 0.517263 0.756737 -3.18055e-15 0 -7.95139e-16 5.17411 -0.084 0.313895 -20 0 -0 3.94947 0 0 -24 -6.36111e-15 6.36111e-15 2.47579 -2.84217e-14 5.68434e-14 -20 -3.18055e-15 3.18055e-15 3.36516 0.537895 -0.128947 -3.18055e-15 0 -7.95139e-16 4.63474 -0.022105 -0.478947 -19.9748 -1.02565 2.81938 3.44238 0 -2.84217e-14 -24 -1.59028e-15 6.36111e-15 2.3881 0 2.84217e-14 -20 -1.59028e-15 6.36111e-15 3.16105 0.469368 -1.20179 -3.18055e-15 0 -7.95139e-16 4.14105 -0.022105 -1.09053 -19.7815 -3.00948 8.30515 2.75653 0 -5.68434e-14 -24 -6.36111e-15 6.36111e-15 1.74189 0 2.84217e-14 -20 -5.56597e-15 3.18055e-15 
